<svg width="1440" height="1116" viewBox="0 0 1440 1116" fill="none" xmlns="http://www.w3.org/2000/svg">
<path d="M-54 -93.708C-55.6569 -93.708 -57 -92.3649 -57 -90.708V1111.82C-57 1113.48 -55.6569 1114.82 -54 1114.82H168.204H712.534C715.355 1114.82 716.617 1111.28 714.431 1109.5L452.201 895.414C451.666 894.977 450.996 894.738 450.304 894.738H171.204C169.547 894.738 168.204 893.395 168.204 891.738V233.665C168.204 231.134 170.822 229.478 172.781 231.081C292.728 329.241 844.982 784.766 1100.6 993.47C1102.56 995.069 1105.35 993.56 1105.35 991.031V699.732C1105.35 698.834 1104.95 697.984 1104.26 697.414L142.964 -93.0252C142.427 -93.4666 141.754 -93.708 141.059 -93.708H-54Z" fill="#86949C" fill-opacity="0.05" stroke="#86949C" stroke-opacity="0.06" stroke-linejoin="round"/>
<path d="M1231.78 263.619C1230.12 263.619 1228.78 264.794 1228.78 266.447C1228.61 319.075 1226.11 1088.97 1226.28 1114.16C1226.29 1114.95 1226.74 1114.79 1227.53 1114.79H1450.99C1452.65 1114.79 1453.99 1113.45 1453.99 1111.79V266.619C1453.99 264.962 1452.65 263.619 1450.99 263.619H1231.78Z" fill="#86949C" fill-opacity="0.05" stroke="#86949C" stroke-opacity="0.06" stroke-linejoin="round"/>
</svg>
